<svg width="22" height="22" viewBox="0 0 22 22" fill="none" xmlns="http://www.w3.org/2000/svg">
<path fill-rule="evenodd" clip-rule="evenodd" d="M17.2425 3.33336L13.4446 8.55558L13.4446 19.5861V21.3889L11.9446 20.3889L6.11122 16.5L6.11122 8.55558L2.31324 3.33336L1.22233 1.83336L3.07708 1.83336L16.4787 1.83336H18.3334L17.2425 3.33336ZM11.9446 8.55558L11.9446 18.5861L7.61122 15.6973L7.61122 8.55558V8.06781L7.32432 7.67333L4.16799 3.33336L15.3878 3.33336L12.2314 7.67333L11.9446 8.06781V8.55558ZM14.6668 11.1389L19.5557 11.1389V9.63892L14.6668 9.63892V11.1389ZM14.6668 14.8056L19.5557 14.8056V13.3056L14.6668 13.3056L14.6668 14.8056ZM14.6668 18.4722H19.5557V16.9722H14.6668L14.6668 18.4722Z" fill="white"/>
</svg>
