<svg width="24" height="24" viewBox="0 0 24 24" fill="none" xmlns="http://www.w3.org/2000/svg">
<path d="M21.684 15.1261C21.84 14.8921 21.99 14.6341 22.134 14.3641C22.914 12.8461 23.082 11.3761 22.506 11.0821C22.398 11.0281 22.272 11.0161 22.134 11.0461C22.14 10.9141 22.146 10.7821 22.146 10.6501C22.146 8.94606 21.624 7.56006 20.976 7.56006C20.718 7.56006 20.478 7.78206 20.286 8.16006H12H3.72C3.528 7.78206 3.288 7.56006 3.03 7.56006C2.382 7.56006 1.86 8.94606 1.86 10.6501C1.86 10.7821 1.866 10.9141 1.872 11.0461C1.734 11.0161 1.608 11.0281 1.5 11.0821C0.924003 11.3761 1.092 12.8461 1.872 14.3641C2.01 14.6401 2.166 14.8921 2.322 15.1261C1.848 15.0661 1.5 15.1381 1.356 15.3601C0.924003 16.0081 2.328 17.6941 4.482 19.1221C4.77 19.3141 5.052 19.4881 5.328 19.6441C3.888 19.6621 2.862 19.9921 2.766 20.5561C2.628 21.3721 4.524 22.3681 6.996 22.7821C8.13 22.9741 9.192 23.0041 10.02 22.9081C10.41 23.2021 11.154 23.4001 12.006 23.4001C12.858 23.4001 13.602 23.2021 13.992 22.9081C14.82 23.0041 15.876 22.9741 17.016 22.7821C19.488 22.3681 21.378 21.3721 21.246 20.5561C21.15 19.9921 20.124 19.6621 18.684 19.6441C18.966 19.4821 19.248 19.3081 19.53 19.1221C21.69 17.6881 23.088 16.0081 22.656 15.3601C22.5 15.1381 22.158 15.0661 21.684 15.1261Z" fill="#C6DBFF"/>
<path d="M9.99602 18.9901C6.25202 16.3681 4.02002 12.0781 4.02002 7.51208V5.92808C5.34602 5.51408 6.38402 4.47008 6.78002 3.13208L11.97 1.23608L17.154 3.11408C17.556 4.46408 18.636 5.53808 19.98 5.94008V7.50608C19.98 12.0721 17.748 16.3621 14.004 18.9781L12 20.3881L9.99602 18.9901Z" fill="#2B588D"/>
<path d="M17.658 2.6581L11.97 0.600098L6.28204 2.6761C5.98204 4.0861 4.84804 5.1961 3.42004 5.4601V7.5121C3.42004 12.2821 5.74804 16.7461 9.65404 19.4761L12 21.1201L14.346 19.4821C18.252 16.7521 20.58 12.2821 20.58 7.5181V5.4721C19.122 5.2261 17.958 4.0981 17.658 2.6581ZM19.98 7.5121C19.98 12.0781 17.748 16.3681 14.004 18.9841L12 20.3881L9.99604 18.9901C6.25204 16.3681 4.02004 12.0781 4.02004 7.5121V5.9281C5.34604 5.5141 6.38404 4.4701 6.78004 3.1321L11.97 1.2361L17.154 3.1141C17.556 4.4641 18.636 5.5381 19.98 5.9401V7.5121Z" fill="white"/>
<path d="M17.85 8.19006C17.85 4.94406 15.216 2.31006 11.97 2.31006C8.72397 2.31006 6.08997 4.94406 6.08997 8.19006C6.08997 9.78606 6.72597 11.2321 7.75797 12.2941L7.43997 14.1001L7.85997 14.1601V14.3401L8.27997 14.4601V14.6401L8.63997 14.7601L8.69997 14.8801L9.59997 14.9401V14.7601L9.89997 14.5801V14.7601H12H14.1V14.5801L14.4 14.7601V14.9401L15.3 14.8801L15.36 14.7601L15.72 14.6401V14.4601L16.14 14.3401V14.1601L16.56 14.1001L16.23 12.2401C17.232 11.1841 17.85 9.76206 17.85 8.19006ZM11.97 12.5701C9.51597 12.5701 7.52997 10.5841 7.52997 8.13006C7.52997 5.67606 9.51597 3.69006 11.97 3.69006C14.424 3.69006 16.41 5.67606 16.41 8.13006C16.41 10.5841 14.424 12.5701 11.97 12.5701Z" fill="white"/>
<path d="M12.588 5.46017L13.2 4.86617L12.348 4.74017L11.97 3.97217L11.592 4.74017L10.74 4.86617L11.358 5.46017L11.208 6.31217L11.97 5.91017L12.732 6.31217L12.588 5.46017Z" fill="white"/>
<path d="M9.86401 5.93415L9.62401 5.55615L9.47401 5.97615L9.03601 6.08415L9.39001 6.36015L9.36001 6.80415L9.73201 6.55815L10.146 6.72615L10.026 6.29415L10.314 5.94615L9.86401 5.93415Z" fill="white"/>
<path d="M11.322 6.92407L10.974 7.20607L10.548 7.08607L10.71 7.50007L10.458 7.87207L10.902 7.84207L11.178 8.19607L11.292 7.76407L11.712 7.61407L11.334 7.37407L11.322 6.92407Z" fill="white"/>
<path d="M13.4281 7.08607L12.9961 7.20607L12.6481 6.92407L12.6361 7.37407L12.2581 7.61407L12.6781 7.76407L12.7921 8.19607L13.0681 7.84207L13.5121 7.87207L13.2601 7.50007L13.4281 7.08607Z" fill="white"/>
<path d="M14.8741 6.08415L14.4361 5.97615L14.2861 5.55615L14.0461 5.93415L13.5961 5.94615L13.8841 6.29415L13.7641 6.72615L14.1781 6.55815L14.5501 6.80415L14.5201 6.36015L14.8741 6.08415Z" fill="white"/>
<path d="M15.42 10.4401H13.74V10.0801H13.92V9.84012H13.62V9.78012H13.8V9.54012H13.5V9.12012H12H10.5V9.54012H10.2V9.78012H10.38V9.84012H10.08V10.0801H10.26V10.4401H8.58002L8.40002 11.3401H12H15.6L15.42 10.4401Z" fill="white"/>
<mask id="mask0_2816_24614" style="mask-type:alpha" maskUnits="userSpaceOnUse" x="3" y="0" width="18" height="22">
<path d="M17.658 2.6581L11.97 0.600098L6.28204 2.6761C5.98204 4.0861 4.84804 5.1961 3.42004 5.4601V7.5121C3.42004 12.2821 5.74804 16.7461 9.65404 19.4761L12 21.1201L14.346 19.4821C18.252 16.7521 20.58 12.2821 20.58 7.5181V5.4721C19.122 5.2261 17.958 4.0981 17.658 2.6581Z" fill="white"/>
</mask>
<g mask="url(#mask0_2816_24614)">
<path d="M7.20007 16.14H7.98007V15.54H8.70007L8.94007 15.78L9.00007 16.26H11.2801V15.3H12.7801L13.3801 15.78L13.4401 16.56H14.7001V16.02H15.2401L15.4801 16.2V16.5H16.5001V21.66H7.20007V16.14Z" fill="white"/>
</g>
</svg>
